<?xml version="1.0" encoding="utf-8"?>
<!-- Generator: Adobe Illustrator 19.0.0, SVG Export Plug-In . SVG Version: 6.00 Build 0)  -->
<svg version="1.1" xmlns="http://www.w3.org/2000/svg" xmlns:xlink="http://www.w3.org/1999/xlink" x="0px" y="0px"
	 viewBox="-153.8 128.1 50 250" style="enable-background:new -153.8 128.1 50 250;" xml:space="preserve">
<style type="text/css">
	.st0{fill:none;stroke:#333333;stroke-linecap:round;stroke-linejoin:round;stroke-miterlimit:10;}
	.st1{fill:none;stroke:#FFFFFF;stroke-linecap:round;stroke-linejoin:round;stroke-miterlimit:10;}
	.st2{display:none;}
	.st3{display:inline;}
	.st4{fill:#333333;}
</style>
<g id="Layer_1">
	<g id="black_1_">
		<line id="XMLID_8_" class="st0" x1="-113.8" y1="168.1" x2="-143.8" y2="138.1"/>
		<line id="XMLID_7_" class="st0" x1="-143.8" y1="168.1" x2="-113.8" y2="138.1"/>
	</g>
	<g id="_x3C_">
		<line id="XMLID_6_" class="st1" x1="-136.3" y1="303.1" x2="-121.4" y2="288.1"/>
		<line id="XMLID_5_" class="st1" x1="-121.4" y1="318.1" x2="-136.3" y2="303.1"/>
	</g>
	<g id="rect" class="st2">
		<g class="st3">
			<path d="M-104.8,129.1v48h-48v-48H-104.8 M-103.8,128.1h-50v50h50V128.1L-103.8,128.1z"/>
		</g>
		<g class="st3">
			<path d="M-104.8,179.1v48h-48v-48H-104.8 M-103.8,178.1h-50v50h50V178.1L-103.8,178.1z"/>
		</g>
		<g class="st3">
			<path d="M-104.8,229.1v48h-48v-48H-104.8 M-103.8,228.1h-50v50h50V228.1L-103.8,228.1z"/>
		</g>
		<g class="st3">
			<path d="M-104.8,279.1v48h-48v-48H-104.8 M-103.8,278.1h-50v50h50V278.1L-103.8,278.1z"/>
		</g>
		<g class="st3">
			<path d="M-104.8,329.1v48h-48v-48H-104.8 M-103.8,328.1h-50v50h50V328.1L-103.8,328.1z"/>
		</g>
	</g>
	<g id="x_1_">
		<line id="XMLID_10_" class="st1" x1="-113.8" y1="218.1" x2="-143.8" y2="188.1"/>
		<line id="XMLID_9_" class="st1" x1="-143.8" y1="218.1" x2="-113.8" y2="188.1"/>
	</g>
	<g id="_x3E_">
		<line id="XMLID_4_" class="st1" x1="-121.3" y1="253.1" x2="-136.3" y2="238.1"/>
		<line id="XMLID_3_" class="st1" x1="-136.3" y1="268.1" x2="-121.3" y2="253.1"/>
	</g>
	
		<rect x="-135.8" y="346.2" transform="matrix(0.7071 0.7071 -0.7071 0.7071 211.945 194.5195)" class="st4" width="13.8" height="13.8"/>
</g>
<g id="Layer_2">
</g>
</svg>
