<?xml version="1.0" encoding="utf-8"?>
<!-- Generator: Adobe Illustrator 19.0.0, SVG Export Plug-In . SVG Version: 6.00 Build 0)  -->
<svg version="1.1" id="Layer_1" xmlns="http://www.w3.org/2000/svg" xmlns:xlink="http://www.w3.org/1999/xlink" x="0px" y="0px"
	 viewBox="0 0 285 833" style="enable-background:new 0 0 285 833;" xml:space="preserve">
<style type="text/css">
	
		.st0{fill-rule:evenodd;clip-rule:evenodd;fill:none;stroke:#999999;stroke-linecap:round;stroke-linejoin:round;stroke-miterlimit:10;}
	
		.st1{display:none;fill-rule:evenodd;clip-rule:evenodd;fill:none;stroke:#999999;stroke-linecap:round;stroke-linejoin:round;stroke-miterlimit:10;}
</style>
<path id="XMLID_41_" class="st0" d="M185.3,0.5c-0.1,7.1,2.9,35.1-20.7,51.2c-30.2,20.4-76.4,27.8-52.4,63.9
	c28.2,27,70.1,33.9,108,33c21.3-0.5,26.9-10.3,22-35.6c-42.5-73.2-108.1-41.5-151.3,11.7c-10.5,18.2-14.1,32.9-14.1,53.8
	c6.2,17.7,6.3,31.2,23.4,40c32,16.3,110,24.9,135.6-5.8c18.1-38-14-77-45.8-91.3c-39.7-11.1-91.7-1.8-110.6,40.4
	c-2.3,33.3,16.1,63.4,41.1,81.9c29.6,16.8,116.1,47.4,141.1,11.1c8.7-32.9-22.4-52.2-46-58.6c-45.9-7.1-101.6,0.8-128.3,44.1
	c-7.7,22.1,0.6,37.2,16.5,53c39.5,27.4,68.2,22,110.5,3.9c22-11.9,30.6-25.7,44-47.2c4.9-13.4,5.1-24.5,2.2-38.4
	c-5.2-12-11-21.3-19.1-31.5c-13.4-12.5-7-22-24.6-27.5c-39.3-12.2-142.4-14.5-171.6,20.5c-2.7,6.8-2.3,11.4-1.7,18.6
	c32.9,62.1,96.8,92.4,164.7,80.5c81.9-14.4,82.9-84.5,27.4-139.3c-38-29.4-87.1-47.6-132.1-23.4c-27.6,20.2-28.9,46.7-26.5,80.3
	c6.2,16.2,3.8,28.3,18.8,37.7c38.3,24.1,140.1,32,169.2-10.6c11.7-34.5-11.4-73.2-45.6-72.5c-39.7,0.8-77.9,31.8-97.5,65.6
	c-4.1,12.7-4.9,22.9-1.3,35.8c14.3,23.2,33.7,36.5,58.6,46.8c15.6,4.1,24.3,8.8,40.4,4.4c37-10.2,37.5-57.9,13-80.4
	c-38.4-35.3-132.9,1.2-132.9,53.8c22.5,52.2,139.5,49.3,139.5-23.6c-18.4-62.3-83.3-63.8-129.1-31.3c-7.5,7.6-2.3,14.3-7.1,23.8
	c-7.4,24.4-17.4,49.3-1,69.7c31.5,27.8,71.4,37.2,112.5,35.7c13.9-0.5,31.6-5.1,36.9-21.1c0-2.2,0-4.4,0-6.6
	c-10.1-11.2-22.4-7.2-35.6-7.2c-35.5,0-84.9-9.7-110,22.8c-0.1,4.2-0.2,8.4-0.3,12.6c3,4.4,6,8.9,9,13.3
	c14.9,12.6,30.2,20.8,50.2,16.7c23.5-10.2,49.5-31.9,41.7-60.4c-12.5-23.5-33.2-30.5-58.3-30.5c-23.1,7.2-56.1,20.1-48.9,49.9
	c18.6,26.1,84.4,22.2,114.6,22.2c-13.1,14.7-60.3,34-79.9,29.2c-22.8-10-30.6-42.6-40.3-47c-0.5,0-1-0.1-1.4-0.1
	c-12.9,7.7,6.3,38.9,13.2,44.9c30.1,17.7,75.9,8.9,109.8,8.9c0,8-5.8,12.6-12,17.2c-37.4,22.5-76.7-5.6-115.4-5.6
	c-0.1,1.6-0.2,3.2-0.3,4.7c9.7,30.7,55.4,33.4,81,28c16.2-6.2,28.6-16.6,41.2-28c4-8.9-45.8-82.8-60.3-82.8
	c-20.7,16.9-11.5,50.2,0.5,68.8c16.6,17,36.7,22.5,60,22.5c-6.1,4-12.2,8-18.3,12c-8.9,6.2-61.1,41.1-61.1,49.7
	c3.7,1.7,77.3-12,86.8-24.8c0-1,0-2,0-3c-28.4-27.9-52.9-16.3-82.2,4.4c-8.8,6.2-30.2,18.4-30.2,31.1c11.8,16.8,77.4,10.1,99.2,10.1
	c0,11.1-78.3,20.3-91.3,20.3c0,17.7,60,28.6,72.7,30.7c2.5,0.4,7.9,0.6,7.9,3.9c-17.1,10.8-50.6-8-60.9,9.1
	c0,22.4,21.8,38.8,44.6,34.4c9.6-6.1-4.9-12.2,4.7-18.3c0,5.4,7.8,4.1,5.2,3.9c-4.7-2.8-9.5-5.5-14.2-8.3c0-2.3,0-4.5,0-6.8
	c5.5-8.7,12.9-17.4,23.7-17.4c11.8,7.1-11.8,23.1-11.8,35.2c-6.5,12.2-24.2,21.8-32.4,8.9c0-0.4,0-0.7,0-1.1c12,0,19.4,12.1,34,9.1
	c5.6-2.7-6.5-10.7-8.6-18.3c-1.5,0.2,21,0.3,19.5,0.5c-14.7,9.9-28.8,25.6-28.8,43.6c4.4,11.3,16.5,18.9,28.6,18.9
	c-9,0-25-1-30.3,8.5c-0.1,1.1-0.2,2.1-0.3,3.2c4.8,4.9,9.7,9.7,14.5,14.6c6.2,17.8-8.7,39.2-4.6,55.9c2.5,3.3,5.1,6.6,7.6,10
	c4.7,17.1,0,35.2-2.2,51.6c1.4,3.2,2.9,6.5,4.3,9.7c0.9,6.6-1.1,26.7-1.1,34.6"/>
<rect id="XMLID_70_" x="184.5" y="-37.5" class="st1" width="100" height="7"/>
</svg>
