<?xml version="1.0" encoding="utf-8"?>
<!-- Generator: Adobe Illustrator 19.0.0, SVG Export Plug-In . SVG Version: 6.00 Build 0)  -->
<svg version="1.1" id="Layer_1" xmlns="http://www.w3.org/2000/svg" xmlns:xlink="http://www.w3.org/1999/xlink" x="0px" y="0px"
	 viewBox="0 0 354.5 99" style="enable-background:new 0 0 354.5 99;" xml:space="preserve">
<style type="text/css">
	
		.st0{fill-rule:evenodd;clip-rule:evenodd;fill:none;stroke:#999999;stroke-linecap:round;stroke-linejoin:round;stroke-miterlimit:10;}
	
		.st1{display:none;fill-rule:evenodd;clip-rule:evenodd;fill:none;stroke:#999999;stroke-linecap:round;stroke-linejoin:round;stroke-miterlimit:10;}
</style>
<path id="XMLID_41_" class="st0" d="M0.5,38.1c3,0.1,14.9-1.2,21.7,8.8C30.9,59.8,34,79.4,49.3,69.1c11.5-12,14.4-29.8,14-45.8
	c-0.2-9-4.4-11.4-15.1-9.3c-31.1,18-17.6,45.9,5,64.2c7.7,4.5,14,6,22.8,6c7.5-2.6,13.2-2.7,17-9.9c6.9-13.6,10.6-46.7-2.5-57.6
	c-16.1-7.7-32.7,6-38.7,19.4C47.1,53,51,75,68.9,83.1c14.1,1,26.9-6.8,34.8-17.4c7.1-12.5,20.1-49.2,4.7-59.9
	c-13.9-3.7-22.1,9.5-24.9,19.5c-3,19.5,0.3,43.1,18.7,54.4c9.4,3.3,15.8-0.3,22.5-7c11.6-16.8,9.3-28.9,1.7-46.9
	c-5.1-9.4-10.9-13-20-18.7C100.7,5.1,96,5,90.1,6.2c-5.1,2.2-9.1,4.7-13.4,8.1c-5.3,5.7-9.3,3-11.7,10.5
	c-5.2,16.7-6.2,60.4,8.7,72.8c2.9,1.2,4.8,1,7.9,0.7c26.3-13.9,39.2-41.1,34.2-69.9C109.7-6.4,80-6.8,56.7,16.8
	c-12.5,16.1-20.2,36.9-9.9,56c8.6,11.7,19.8,12.3,34.1,11.2c6.9-2.6,12-1.6,16-8c10.2-16.3,13.6-59.4-4.5-71.8
	c-14.6-5-31,4.8-30.7,19.3C62,40.5,75.1,56.7,89.5,65c5.4,1.7,9.7,2.1,15.2,0.6c9.9-6.1,15.5-14.3,19.9-24.9
	c1.7-6.6,3.8-10.3,1.9-17.2C122.1,7.8,101.8,7.6,92.3,18c-15,16.3,0.5,56.4,22.8,56.4c22.1-9.5,20.9-59.2-10-59.2
	C78.7,23,78.1,50.5,91.8,69.9c3.2,3.2,6.1,1,10.1,3c10.4,3.1,20.9,7.4,29.6,0.4c11.8-13.4,15.8-30.3,15.1-47.7
	c-0.2-5.9-2.1-13.4-9-15.6c-0.9,0-1.9,0-2.8,0c-4.7,4.3-3.1,9.5-3.1,15.1c0,15.1-4.1,36,9.7,46.7c1.8,0,3.6,0.1,5.3,0.1
	c1.9-1.3,3.8-2.5,5.6-3.8c5.4-6.3,8.8-12.8,7.1-21.3c-4.3-10-13.5-21-25.6-17.7C124,34.4,121,43.2,121,53.8
	c3.1,9.8,8.5,23.8,21.2,20.7c11.1-7.9,9.4-35.8,9.4-48.6c6.3,5.6,14.4,25.6,12.4,33.9c-4.2,9.7-18.1,13-19.9,17.1
	c0,0.2,0,0.4-0.1,0.6c3.3,5.5,16.5-2.7,19.1-5.6c7.5-12.8,3.8-32.2,3.8-46.6c3.4,0,5.3,2.5,7.3,5.1c9.5,15.9-2.4,32.5-2.4,48.9
	c0.7,0,1.3,0.1,2,0.1c13-4.1,14.2-23.5,11.9-34.4c-2.6-6.9-7.1-12.1-11.9-17.5c-3.8-1.7-35.1,19.4-35.1,25.6
	c7.2,8.8,21.3,4.9,29.2-0.2c7.2-7,9.6-15.6,9.6-25.5c1.7,2.6,3.4,5.2,5.1,7.8c2.6,3.8,17.5,25.9,21.1,25.9
	c0.7-1.6-5.1-32.8-10.5-36.8c-0.4,0-0.8,0-1.3,0c-11.8,12-6.9,22.5,1.9,34.9c2.6,3.7,7.8,12.8,13.2,12.8c7.1-5,4.3-32.9,4.3-42.1
	c4.7,0,8.6,33.2,8.6,38.7c7.5,0,12.1-25.5,13-30.8c0.2-1.1,0.3-3.4,1.7-3.4c4.6,7.3-3.4,21.5,3.9,25.9c9.5,0,16.5-9.3,14.6-18.9
	c-2.6-4.1-5.2,2.1-7.7-2c2.3,0,1.7-3.3,1.7-2.2c-1.2,2-2.3,4-3.5,6c-1,0-1.9,0-2.9,0c-3.7-2.3-7.4-5.5-7.4-10.1c3-5,9.8,5,14.9,5
	c5.2,2.7,9.2,10.3,3.8,13.7c-0.2,0-0.3,0-0.5,0c0-5.1,5.1-8.2,3.9-14.4c-1.1-2.4-4.5,2.8-7.7,3.6c0.1,0.6,0.1-8.9,0.2-8.3
	c4.2,6.2,10.9,12.2,18.5,12.2c4.8-1.9,8-7,8-12.1c0,3.8-0.4,10.6,3.6,12.9c0.5,0,0.9,0.1,1.4,0.1c2.1-2,4.1-4.1,6.2-6.1
	c7.5-2.6,16.6,3.7,23.7,2c1.4-1.1,2.8-2.2,4.2-3.2c7.2-2,14.9,0,21.9,0.9c1.4-0.6,2.8-1.2,4.1-1.8c2.8-0.4,11.3,0.5,14.7,0.5"/>
<rect id="XMLID_70_" x="203.2" y="-405" class="st1" width="100" height="7"/>
</svg>
