<?xml version="1.0" encoding="utf-8"?>
<!-- Generator: Adobe Illustrator 19.1.0, SVG Export Plug-In . SVG Version: 6.00 Build 0)  -->
<svg version="1.1" id="Layer_1" xmlns="http://www.w3.org/2000/svg" xmlns:xlink="http://www.w3.org/1999/xlink" x="0px" y="0px"
	 viewBox="0 0 285 1550" style="enable-background:new 0 0 285 1550;" xml:space="preserve">
<style type="text/css">
	
		.st0{fill-rule:evenodd;clip-rule:evenodd;fill:none;stroke:#999999;stroke-linecap:round;stroke-linejoin:round;stroke-miterlimit:10;}
	
		.st1{display:none;fill-rule:evenodd;clip-rule:evenodd;fill:none;stroke:#999999;stroke-linecap:round;stroke-linejoin:round;stroke-miterlimit:10;}
</style>
<path id="XMLID_2_" class="st0" d="M184.1,0v86c-0.1,7.2,2.8,35.3-20.5,51.5c-30,20.6-75.8,28-51.9,64.3
	c28,27.2,69.5,34.2,107.1,33.2c21.1-0.5,26.7-10.4,21.8-35.8c-42.1-73.8-107.2-41.8-150,11.8c-10.4,18.3-14,33.2-14,54.2
	c6.2,17.9,6.2,31.4,23.2,40.3c31.7,16.4,109.1,25.1,134.5-5.9c17.9-38.3-13.9-77.6-45.4-92c-39.3-11.2-90.9-1.8-109.7,40.7
	c-2.3,33.6,15.9,63.8,40.7,82.5c29.3,16.9,115.1,47.7,139.9,11.2c8.6-33.1-22.2-52.6-45.6-59c-45.5-7.1-100.8,0.8-127.2,44.4
	c-7.6,22.3,0.6,37.5,16.3,53.4c39.2,27.6,67.6,22.1,109.6,3.9c21.9-12,30.3-25.9,43.6-47.5c4.8-13.5,5.1-24.7,2.2-38.7
	c-5.1-12-10.9-21.5-18.9-31.8c-13.2-12.6-6.9-22.2-24.4-27.7C176.3,227,74,224.7,45.1,260c-2.7,6.8-2.2,11.4-1.7,18.8
	c32.6,62.5,96,93.1,163.4,81.1c81.2-14.5,82.2-85.1,27.2-140.4c-37.6-29.6-86.3-47.9-131-23.5c-27.4,20.3-28.7,47-26.3,80.9
	c6.2,16.3,3.8,28.5,18.7,38c38,24.3,138.9,32.2,167.8-10.6c11.6-34.7-11.3-73.7-45.2-73c-39.4,0.8-77.3,32.1-96.6,66.1
	c-4.1,12.8-4.8,23.1-1.3,36.1c14.2,23.4,33.4,36.7,58.1,47.2c15.5,4.1,24.1,8.9,40.1,4.4c36.7-10.3,37.2-58.3,12.9-81
	c-38.1-35.6-131.8,1.2-131.8,54.2c22.3,52.6,138.3,49.7,138.3-23.8c-18.2-62.7-82.6-64.2-128-31.5c-7.4,7.7-2.3,14.4-7.1,24
	c-7.3,24.6-17.3,49.6-1,70.2c31.3,28,70.8,37.4,111.5,36c13.8-0.5,31.4-5.1,36.6-21.3c0-2.2,0-4.5,0-6.7c-10-11.2-22.2-7.3-35.3-7.3
	c-35.2,0-84.1-9.8-109,22.9c-0.1,4.2-0.2,8.4-0.3,12.7c3,4.5,5.9,8.9,8.9,13.4c14.8,12.7,30,21,49.7,16.8
	c23.3-10.2,49.1-32.1,41.4-60.8c-12.4-23.6-32.9-30.7-57.8-30.7c-22.9,7.3-55.6,20.3-48.4,50.3c18.5,26.3,83.7,22.3,113.6,22.3
	c-13,14.9-59.8,34.2-79.3,29.4c-22.6-10.1-30.4-42.9-40-47.3c-0.5,0-1-0.1-1.4-0.1c-12.7,7.8,6.3,39.2,13.1,45.3
	c29.8,17.8,75.2,9,108.9,9c0,8.1-5.8,12.7-11.9,17.3c-37.1,22.6-76.1-5.6-114.4-5.6c-0.1,1.6-0.2,3.2-0.3,4.8
	c9.6,30.9,55,33.6,80.3,28.2c16-6.3,28.4-16.8,40.9-28.2c3.9-9-45.4-83.4-59.8-83.4c-20.5,17-11.4,50.5,0.5,69.3
	c16.5,17.1,36.4,22.7,59.5,22.7c-6,4-12.1,8-18.1,12.1c-8.8,6.2-60.6,41.4-60.6,50c3.7,1.7,76.6-12,86-25c0-1,0-2,0-3
	c-28.1-28.1-52.5-16.4-81.5,4.4c-8.8,6.3-29.9,18.5-29.9,31.3c11.7,16.9,76.8,10.2,98.3,10.2c0,11.2-77.6,20.4-90.5,20.4
	c0,17.9,59.5,28.8,72.1,30.9c2.5,0.4,7.8,0.7,7.8,3.9c-17,10.9-50.1-8.1-60.4,9.2c0,22.6,21.7,39.1,44.3,34.6
	c9.5-6.1-4.8-12.3,4.7-18.4c0,5.4,7.7,4.1,5.1,3.9c-4.7-2.8-9.4-5.6-14.1-8.4c0-2.3,0-4.5,0-6.8c5.5-8.7,12.8-17.6,23.5-17.6
	c11.7,7.1-11.7,23.2-11.7,35.5c-6.4,12.3-24,21.9-32.1,9c0-0.4,0-0.7,0-1.1c11.9,0,19.3,12.2,33.7,9.2c5.5-2.7-6.4-10.8-8.5-18.4
	c-1.5,0.2,20.8,0.3,19.4,0.5c-14.6,10-28.6,25.8-28.6,44c4.3,11.4,16.3,19,28.3,19c-8.9,0-24.8-1-30,8.6c-0.1,1.1-0.2,2.2-0.3,3.2
	c4.8,4.9,9.6,9.8,14.4,14.7c6.2,17.9-8.6,39.5-4.6,56.3c2.5,3.3,5,6.7,7.6,10c4.7,17.2,0,35.5-2.2,52c1.4,3.3,2.9,6.5,4.3,9.8
	c0.9,6.7-1.1,26.9-1.1,34.9v625"/>
<rect id="XMLID_70_" x="184.5" y="54.1" class="st1" width="100" height="7"/>
</svg>
